<svg id="icons" xmlns="http://www.w3.org/2000/svg" viewBox="0 0 340 340"><path d="M43.692,55.962S12.826,57.444,12.826,93.388V280.246l30.866-21.093Z" style="fill:#4e73a8"/><path d="M33.919,259.153a21.094,21.094,0,0,0-21.08,21.862c.407,11.43,10.148,20.324,21.585,20.324H192.546a1.493,1.493,0,0,0,.816-2.746c-4.39-2.845-9.6-8.331-9.6-18.347,0-17.317,15.563-21.093,15.563-21.093Z" style="fill:#eaf5ff"/><rect x="43.692" y="55.962" width="155.637" height="203.191" style="fill:#88b0ea"/><path d="M310.622,10h-126.9a16.553,16.553,0,0,0-16.552,16.552V146.03a16.553,16.553,0,0,0,16.552,16.552h63.448v45.532l45.474-45.532h17.974a16.552,16.552,0,0,0,16.552-16.552V26.552A16.552,16.552,0,0,0,310.622,10Z" style="fill:#ffd071"/><path d="M290.771,60.531H239.122a4,4,0,0,1,0-8h51.649C296.013,52.615,296.041,60.44,290.771,60.531Z" style="fill:#fff"/><path d="M290.771,90.018H239.122a4,4,0,0,1,0-8h51.649C296.013,82.1,296.041,89.928,290.771,90.018Z" style="fill:#fff"/><path d="M290.771,119.506H239.122a4,4,0,0,1,0-8h51.649C296.013,111.591,296.041,119.416,290.771,119.506Z" style="fill:#fff"/><path d="M184.076,284.246a26.425,26.425,0,0,1,0-8H36.985a4,4,0,0,0,0,8Z" style="fill:#c9d4ff"/><path d="M209.42,56.531c-.09,5.258-7.911,5.257-8,0C201.51,51.273,209.331,51.274,209.42,56.531Z" style="fill:#fff"/><path d="M209.42,86.018c-.09,5.258-7.911,5.258-8,0C201.51,80.761,209.331,80.761,209.42,86.018Z" style="fill:#fff"/><path d="M209.42,115.506c-.09,5.258-7.911,5.257-8,0C201.51,110.248,209.331,110.249,209.42,115.506Z" style="fill:#fff"/><rect x="47.805" y="276.246" width="30.38" height="25.093" style="fill:#c9d4ff"/><polygon points="58.032 280.246 58.032 330 79.585 314.378 101.138 330 101.138 280.246 58.032 280.246" style="fill:#f47676"/><path d="M12.826,284.246a4,4,0,0,1-4-4V93.389c0-39.3,34.328-41.406,34.674-41.423,5.257-.108,5.641,7.6.4,7.99-1.158.066-27.069,1.906-27.069,33.433V280.246A4,4,0,0,1,12.826,284.246Z" style="fill:#383a49"/><path d="M199.33,305.339H118.539a4,4,0,1,1,0-8h67.319c-8.051-8.431-8.043-25.763,0-34.186H33.919a17.093,17.093,0,0,0,0,34.186H57.212c5.281.091,5.236,7.918,0,8H33.919c-33.17-1.159-33.24-49,0-50.186H199.33c4.617.013,5.527,6.753.943,7.887a17.3,17.3,0,0,0-12.507,17.206c0,14.011,12,17.082,12.507,17.206C204.753,298.542,204.053,305.326,199.33,305.339Z" style="fill:#383a49"/><path d="M43.692,243.952a4,4,0,0,1-4-4V55.962a4,4,0,0,1,4-4h105.3a4,4,0,0,1,0,8H47.692v179.99A4,4,0,0,1,43.692,243.952Z" style="fill:#383a49"/><path d="M199.33,263.153a4,4,0,0,1-4-4v-76.91a4,4,0,0,1,8,0v76.91A4,4,0,0,1,199.33,263.153Z" style="fill:#383a49"/><path d="M101.139,334a4,4,0,0,1-2.406-.8L79.585,318.79,60.437,333.2a4,4,0,0,1-6.405-3.2V280.246a4,4,0,0,1,4-4h43.106a4,4,0,0,1,4,4V330A4.023,4.023,0,0,1,101.139,334ZM79.585,309.785a4,4,0,0,1,2.405.8l15.148,11.4V284.246H62.032v37.739l15.148-11.4A4,4,0,0,1,79.585,309.785Z" style="fill:#383a49"/><path d="M247.173,212.114a4.021,4.021,0,0,1-4-4V166.582H183.726a20.576,20.576,0,0,1-20.552-20.552V26.552A20.576,20.576,0,0,1,183.726,6h126.9a20.575,20.575,0,0,1,20.551,20.552V146.03a20.575,20.575,0,0,1-20.551,20.552H294.306L250,210.941A4,4,0,0,1,247.173,212.114ZM183.726,14a12.566,12.566,0,0,0-12.552,12.552V146.03a12.566,12.566,0,0,0,12.552,12.552h63.448a4,4,0,0,1,4,4v35.867l38.644-38.694a4,4,0,0,1,2.83-1.173h17.975a12.566,12.566,0,0,0,12.551-12.552V26.552A12.566,12.566,0,0,0,310.623,14Z" style="fill:#383a49"/></svg>